<mxfile host="65bd71144e">
    <diagram id="0EUzahYQ5MKP1RXXZPAO" name="ページ1">
        <mxGraphModel dx="576" dy="315" grid="1" gridSize="10" guides="1" tooltips="1" connect="1" arrows="1" fold="1" page="1" pageScale="1" pageWidth="827" pageHeight="1169" math="0" shadow="0">
            <root>
                <mxCell id="0"/>
                <mxCell id="1" parent="0"/>
                <mxCell id="2" value="オンプレ環境" style="image;points=[];aspect=fixed;html=1;align=center;shadow=0;dashed=0;image=img/lib/allied_telesis/computer_and_terminals/Server_Desktop.svg;" vertex="1" parent="1">
                    <mxGeometry x="80" y="200" width="42.599999999999994" height="54" as="geometry"/>
                </mxCell>
                <mxCell id="3" value="Google Drive&amp;nbsp;" style="sketch=0;points=[[0,0,0],[0.25,0,0],[0.5,0,0],[0.75,0,0],[1,0,0],[1,0.25,0],[1,0.5,0],[1,0.75,0],[1,1,0],[0.75,1,0],[0.5,1,0],[0.25,1,0],[0,1,0],[0,0.75,0],[0,0.5,0],[0,0.25,0]];rounded=1;absoluteArcSize=1;arcSize=2;html=1;strokeColor=none;gradientColor=none;shadow=0;dashed=0;fontSize=12;fontColor=#9E9E9E;align=left;verticalAlign=top;spacing=10;spacingTop=-4;whiteSpace=wrap;fillColor=#F3E5F5;" vertex="1" parent="1">
                    <mxGeometry x="250" y="50" width="440" height="310" as="geometry"/>
                </mxCell>
            </root>
        </mxGraphModel>
    </diagram>
</mxfile>